<svg xmlns="http://www.w3.org/2000/svg" viewBox="0 0 900 520" role="img" aria-labelledby="title desc"><title id="title">BFT Health Triage Dashboard</title><desc id="desc">AI health triage queue with patient vitals, severity flags, and live patient flow cards.</desc><defs><linearGradient id="bg" x1="0" y1="0" x2="1" y2="1"><stop stop-color="#07111f"/><stop offset="1" stop-color="#020617"/></linearGradient><filter id="glow"><feGaussianBlur stdDeviation="3" result="b"/><feMerge><feMergeNode in="b"/><feMergeNode in="SourceGraphic"/></feMerge></filter></defs><rect width="900" height="520" rx="34" fill="url(#bg)"/><rect x="28" y="28" width="844" height="464" rx="28" fill="#071827" stroke="#155e75" stroke-width="2"/><text x="60" y="72" fill="#ecfeff" font-family="Inter,Arial" font-size="24" font-weight="800">SMART HEALTH TRIAGE</text><text x="60" y="100" fill="#67e8f9" font-family="Inter,Arial" font-size="13" letter-spacing="3">PATIENT FLOW · SEVERITY AI · REAL-TIME VITALS</text><g transform="translate(60 135)"><rect width="300" height="280" rx="22" fill="#081d2c" stroke="#164e63"/><text x="20" y="34" fill="#e0f2fe" font-family="Inter,Arial" font-size="15" font-weight="800">LIVE VITALS</text><path d="M24 150 L70 150 L86 104 L112 198 L140 150 L176 150 L196 124 L220 150 L270 150" fill="none" stroke="#22d3ee" stroke-width="5" stroke-linecap="round" filter="url(#glow)"/><text x="24" y="88" fill="#fff" font-family="Inter,Arial" font-size="36" font-weight="800">HR 92</text><text x="24" y="230" fill="#cbd5e1" font-family="Inter,Arial" font-size="16">BP 128/84</text><text x="160" y="230" fill="#cbd5e1" font-family="Inter,Arial" font-size="16">SpO₂ 97%</text><rect x="24" y="250" width="252" height="12" rx="6" fill="#123047"/><rect x="24" y="250" width="224" height="12" rx="6" fill="#22c55e"/></g><g transform="translate(394 135)"><text x="0" y="0" fill="#e0f2fe" font-family="Inter,Arial" font-size="15" font-weight="800">TRIAGE QUEUE</text><g transform="translate(0 24)"><rect width="400" height="58" rx="14" fill="#3b0a16" stroke="#ef4444"/><text x="18" y="35" fill="#fecaca" font-family="Inter,Arial" font-size="14" font-weight="800">CRIT</text><text x="78" y="35" fill="#fff" font-family="Inter,Arial" font-size="15" font-weight="700">Martinez · 58M · Chest Pain</text><text x="322" y="35" fill="#fca5a5" font-family="Inter,Arial" font-size="13" font-weight="700">NOW</text></g><g transform="translate(0 98)"><rect width="400" height="58" rx="14" fill="#351a05" stroke="#f97316"/><text x="18" y="35" fill="#fed7aa" font-family="Inter,Arial" font-size="14" font-weight="800">HIGH</text><text x="78" y="35" fill="#fff" font-family="Inter,Arial" font-size="15" font-weight="700">Thompson · 34F · Head Injury</text><text x="322" y="35" fill="#fdba74" font-family="Inter,Arial" font-size="13" font-weight="700">4m</text></g><g transform="translate(0 172)"><rect width="400" height="58" rx="14" fill="#082f49" stroke="#38bdf8"/><text x="18" y="35" fill="#bae6fd" font-family="Inter,Arial" font-size="14" font-weight="800">MED</text><text x="78" y="35" fill="#fff" font-family="Inter,Arial" font-size="15" font-weight="700">Davis · 27M · Fracture</text><text x="322" y="35" fill="#7dd3fc" font-family="Inter,Arial" font-size="13" font-weight="700">18m</text></g></g><g transform="translate(60 435)"><text fill="#ef4444" font-family="Inter,Arial" font-size="18" font-weight="800">3 critical</text><text x="120" fill="#f97316" font-family="Inter,Arial" font-size="18" font-weight="800">7 high</text><text x="215" fill="#38bdf8" font-family="Inter,Arial" font-size="18" font-weight="800">12 medium</text><text x="345" fill="#22c55e" font-family="Inter,Arial" font-size="18" font-weight="800">42 discharged</text></g></svg>
